PathFileType	4	(X/Y/Z)	s09c0201.trc
DataRate	CameraRate	NumFrames	NumMarkers	Units	OrigDataRate	OrigDataStartFrame	OrigNumFrames
200	200	4	50	mm	200	500	2000
Frame#	Time	racr			lacr			c7			jug			rlel			rdr			llel			ldr			s2			lic			ric			lasi			rasi			rpsi			lpsi			rgt			lgt			rth1			rth2			rth3			rth4			rlfc			rmfc			rsh1			rsh2			rsh3			rsh4			rlmal			rmmal			rcal			rtoe			rmt5			lth1			lth2			lth4			lth3			llfc			lmfc			llmal			lmmal			lcal			lmt5			lsh1			lsh2			lsh3			lsh4			ltoe			SBIKE			LBIKE			RBIKE			
		X1	Y1	Z1	X2	Y2	Z2	X3	Y3	Z3	X4	Y4	Z4	X5	Y5	Z5	X6	Y6	Z6	X7	Y7	Z7	X8	Y8	Z8	X9	Y9	Z9	X10	Y10	Z10	X11	Y11	Z11	X12	Y12	Z12	X13	Y13	Z13	X14	Y14	Z14	X15	Y15	Z15	X16	Y16	Z16	X17	Y17	Z17	X18	Y18	Z18	X19	Y19	Z19	X20	Y20	Z20	X21	Y21	Z21	X22	Y22	Z22	X23	Y23	Z23	X24	Y24	Z24	X25	Y25	Z25	X26	Y26	Z26	X27	Y27	Z27	X28	Y28	Z28	X29	Y29	Z29	X30	Y30	Z30	X31	Y31	Z31	X32	Y32	Z32	X33	Y33	Z33	X34	Y34	Z34	X35	Y35	Z35	X36	Y36	Z36	X37	Y37	Z37	X38	Y38	Z38	X39	Y39	Z39	X40	Y40	Z40	X41	Y41	Z41	X42	Y42	Z42	X43	Y43	Z43	X44	Y44	Z44	X45	Y45	Z45	X46	Y46	Z46	X47	Y47	Z47	X48	Y48	Z48	X49	Y49	Z49	X50	Y50	Z50	
500	2.5000	491.906752	1260.857515	-45.585054	576.812060	1222.832605	-352.962248	495.947094	1298.298432	-201.132247	485.613747	1158.197435	-198.363566	468.216780	1020.133745	47.759224	677.533583	910.744044	-43.001402	470.528901	1024.683278	-528.521249	680.059803	915.099893	-462.494906	22.956770	1130.010375	-291.796002	176.675226	1096.679597	-416.869133	143.886962	1144.426161	-129.441667	206.905018	1042.988179	-382.870446	186.786380	1086.871471	-134.034731	44.963531	1168.787532	-234.513875	59.632101	1159.317363	-342.665766	127.586919	1027.522807	-72.958347	131.436683	964.525932	-447.113560	252.325850	958.642932	-80.017405	337.615866	939.266185	-88.928580	398.797880	875.652796	-90.287718	351.587830	962.871148	-113.262771	473.786900	794.971039	-119.261291	459.043933	768.921394	-214.541919	425.530183	703.211980	-81.258767	413.029238	614.769060	-93.895335	360.510116	545.162018	-87.291767	434.399627	607.917260	-126.007366	324.964260	449.095218	-83.308347	320.428843	460.983049	-162.048957	249.237032	395.675733	-117.337261	507.572240	453.192337	-128.641708	434.318182	415.372970	-59.878107	222.374494	862.541596	-427.361423	290.034552	814.530022	-409.476544	316.627319	837.150662	-395.015592	327.417953	732.576153	-398.844859	356.057581	638.160862	-378.852819	353.911358	623.762823	-280.225683	117.204811	361.451452	-399.152705	137.526427	353.348202	-328.576771	43.079694	365.105600	-363.664789	151.877297	232.215476	-428.455562	294.073746	561.125091	-405.302646	256.582061	483.912971	-397.422738	183.161249	432.984503	-402.436847	273.367876	470.892206	-363.831749	235.081840	189.580729	-360.300403	-65.091990	852.644973	-241.916075	21.187347	83.862200	-442.208024	21.165093	83.945310	-43.977668	
501	2.5050	492.936772	1259.358482	-45.938268	577.118817	1221.332632	-353.065910	496.671462	1296.881732	-201.690676	485.754031	1156.571738	-198.579161	468.603370	1018.681201	47.628877	677.831095	910.969743	-42.133777	469.767511	1024.183013	-528.764013	679.083894	914.998023	-461.304105	22.783112	1131.277870	-290.905572	175.562855	1097.755949	-416.725210	144.365881	1144.540818	-128.960876	205.601725	1043.656149	-382.986341	186.915981	1086.785869	-133.874772	45.238134	1169.760473	-233.680822	60.192612	1160.146407	-341.240011	127.410920	1027.172067	-72.799287	130.309582	965.920654	-447.342820	251.287076	956.802544	-79.549862	336.333032	936.509244	-88.310276	396.694818	872.265827	-89.854650	350.629638	959.923413	-112.556409	471.073220	790.635902	-119.112461	456.596961	764.979456	-214.184890	424.246498	698.267740	-80.805930	412.840075	609.416300	-93.506759	361.461791	539.356879	-87.070702	434.355048	603.352737	-125.837077	327.040022	442.707610	-83.034453	322.367739	454.723279	-161.891112	251.747304	388.625080	-117.188903	509.519876	448.392825	-128.778426	436.892957	409.973284	-59.876613	222.286044	864.242112	-427.383096	290.215726	816.631772	-409.445176	316.732026	839.513255	-394.965660	328.092171	734.831222	-398.872509	356.814591	640.540440	-378.794854	354.089781	626.175004	-280.162683	114.535204	366.691221	-399.272677	135.022925	358.576362	-328.717320	40.363545	370.464582	-363.692319	148.992137	237.469131	-428.408226	294.116362	564.147019	-405.265703	255.599006	487.231110	-397.309748	181.568603	437.398877	-402.448470	271.518607	473.454729	-362.498420	232.155742	194.799590	-360.254625	-65.104122	852.627490	-241.929037	21.187181	83.844893	-442.209758	21.162282	83.959821	-43.984896	
502	2.5100	494.080605	1257.840877	-46.358178	577.399142	1219.895907	-353.278102	497.400873	1295.497515	-202.592019	485.956808	1154.998073	-198.954862	468.107595	1018.072785	48.259730	678.122888	911.194371	-41.282472	469.084024	1023.547699	-529.082946	678.050216	914.949798	-460.086900	22.569221	1132.538179	-289.891268	174.304243	1098.559648	-416.440492	144.878958	1144.598566	-128.375581	204.193400	1044.517569	-383.349341	187.108786	1086.692690	-133.661016	45.535883	1170.388754	-232.583562	59.421916	1161.887395	-340.997378	127.306275	1026.647913	-72.617231	129.244991	967.335400	-447.511171	250.143151	954.671913	-79.121237	334.463546	933.694556	-87.259661	394.512376	868.421706	-89.333909	349.690705	956.747406	-111.879094	468.339990	786.492920	-118.723432	453.994353	760.769752	-213.829696	422.850014	693.189724	-80.347199	412.694206	604.422699	-93.249452	362.305451	533.426336	-86.838391	434.127052	598.543786	-125.687326	329.032333	436.196961	-82.830155	324.097444	448.339096	-161.628361	254.235105	381.473134	-117.115400	511.519331	443.363654	-128.718406	438.377953	404.868326	-59.124929	222.124969	865.811232	-427.369447	290.276537	818.724811	-409.551312	316.680522	841.759877	-395.062812	328.644010	737.179382	-398.952215	357.633725	642.935846	-378.756204	354.347506	628.740780	-280.172306	112.073302	372.083235	-399.396098	132.837536	363.976918	-328.827334	37.913857	376.063089	-363.766447	146.314807	242.901269	-428.352890	294.232362	567.222382	-405.302064	254.744089	490.954381	-397.220510	180.090233	441.904738	-402.476761	270.314294	476.848888	-362.254636	229.425542	200.016657	-360.227948	-65.102056	852.620305	-241.920780	21.193588	83.848649	-442.201610	21.162846	83.954461	-43.979452	
503	2.5150	495.371187	1256.295158	-46.853663	577.697190	1218.502116	-353.623025	498.056382	1294.129895	-202.972571	486.288332	1153.492548	-199.493500	468.162359	1017.044720	48.526796	678.342068	911.328931	-40.392215	468.437741	1022.947415	-529.404231	677.000705	914.942220	-458.958359	22.175717	1133.868831	-288.687916	173.045426	1099.638407	-416.080424	145.479585	1144.533363	-127.744239	202.827236	1045.066671	-383.335325	187.339241	1086.515671	-133.495048	45.810333	1170.843206	-231.254043	59.991390	1162.401937	-339.304227	127.229081	1025.895106	-72.384678	128.207274	968.795488	-447.654288	249.138197	952.367945	-78.575389	333.149681	930.325302	-86.615798	392.267145	864.331777	-88.938515	348.985265	953.307127	-111.400380	465.309460	781.976357	-118.530782	451.323325	756.409896	-213.419483	421.185630	688.104485	-79.956457	412.367072	599.214192	-93.167681	362.973973	527.492498	-86.635012	433.781763	593.648316	-125.553353	330.815954	429.586241	-82.642507	325.781098	441.823942	-161.476866	256.539222	374.264454	-116.999986	513.075831	438.168862	-128.804565	441.507420	398.474701	-60.102963	221.811360	867.549290	-427.446774	290.259857	820.841734	-409.735494	316.600893	843.991780	-395.338888	329.030102	739.473240	-399.110206	358.384478	645.438737	-378.948811	353.857640	631.960675	-280.208046	109.808767	377.636417	-399.459217	130.427521	369.542262	-328.839063	35.506099	381.686115	-363.703862	143.789673	248.440167	-428.358646	294.421180	570.341557	-405.314847	253.921591	494.416120	-397.042521	178.721637	446.451763	-402.550490	269.340676	480.432918	-362.218336	226.869963	205.474975	-360.174425	-65.099488	852.611967	-241.938582	21.198497	83.848950	-442.188910	21.168932	83.949577	-43.987430	
